<svg width="31" height="31" viewBox="0 0 31 31" fill="none" xmlns="http://www.w3.org/2000/svg">
<path d="M13.5121 7.58001L8.86044 2.21064C8.32419 1.59189 7.34107 1.59464 6.71819 2.21889L2.89294 6.05101C1.75444 7.19089 1.42857 8.88351 2.08719 10.2406C6.02192 18.3875 12.5923 24.967 20.7336 28.9131C22.0893 29.5718 23.7806 29.2459 24.9191 28.106L28.7801 24.2381C29.4057 23.6125 29.4071 22.6239 28.7828 22.0876L23.3928 17.4608C22.8291 16.9768 21.9532 17.04 21.3881 17.6065L19.5126 19.4848C19.4166 19.5854 19.2902 19.6517 19.1528 19.6736C19.0154 19.6954 18.8747 19.6716 18.7522 19.6058C15.6866 17.8404 13.1436 15.2941 11.3822 12.2261C11.3162 12.1034 11.2923 11.9624 11.3142 11.8249C11.3361 11.6873 11.4025 11.5606 11.5032 11.4644L13.3732 9.59301C13.9397 9.02376 14.0016 8.14376 13.5121 7.57864V7.58001Z" stroke="black" stroke-width="2" stroke-linecap="round" stroke-linejoin="round"/>
</svg>
