<?xml version="1.0" standalone="no"?>
<!DOCTYPE svg PUBLIC "-//W3C//DTD SVG 20010904//EN"
 "http://www.w3.org/TR/2001/REC-SVG-20010904/DTD/svg10.dtd">
<svg version="1.0" xmlns="http://www.w3.org/2000/svg"
 width="700.000000pt" height="700.000000pt" viewBox="0 0 700.000000 700.000000"
 preserveAspectRatio="xMidYMid meet">
<metadata>
Created by potrace 1.14, written by Peter Selinger 2001-2017
</metadata>
<g transform="translate(0.000000,700.000000) scale(0.100000,-0.100000)"
fill="#000000" stroke="none">
<path d="M569 6996 c-2 -2 -20 -6 -39 -9 -182 -28 -374 -173 -458 -347 -78
-159 -72 122 -69 -3165 3 -2710 4 -2954 19 -3002 54 -171 187 -328 341 -402
47 -23 114 -48 149 -56 53 -11 545 -14 2983 -14 3251 -1 2988 -6 3144 70 144
70 275 219 325 369 37 113 37 94 34 3100 l-3 2935 -23 65 c-42 116 -84 182
-167 266 -89 89 -178 141 -301 174 -66 18 -179 19 -3000 19 -1612 1 -2933 -1
-2935 -3z"/>
</g>
</svg>
