<svg width="40" height="40" viewBox="0 0 40 40" fill="none" xmlns="http://www.w3.org/2000/svg">
<path d="M38.2879 1.52781C37.9207 1.28952 37.5102 1.1259 37.0798 1.04629C36.6494 0.966687 36.2075 0.972663 35.7794 1.06388C35.3513 1.15509 34.9454 1.32975 34.5848 1.57789C34.2242 1.82603 33.916 2.14277 33.6779 2.51004L15.0001 31.3L5.89122 22.8778C5.56984 22.5807 5.19309 22.3497 4.78246 22.1982C4.37184 22.0466 3.93538 21.9774 3.49802 21.9946C2.61472 22.0292 1.78134 22.4132 1.18122 23.0623C0.58109 23.7113 0.263376 24.5722 0.297966 25.4555C0.332556 26.3388 0.716617 27.1721 1.36566 27.7723L13.3257 38.83C13.3257 38.83 13.669 39.1256 13.8279 39.2289C14.1951 39.4674 14.6057 39.6312 15.0362 39.7109C15.4667 39.7906 15.9088 39.7846 16.337 39.6934C16.7652 39.6022 17.1713 39.4275 17.532 39.1792C17.8926 38.931 18.2009 38.6141 18.439 38.2467L39.2701 6.13781C39.5084 5.77065 39.672 5.36014 39.7516 4.92973C39.8312 4.49931 39.8253 4.05743 39.734 3.62933C39.6428 3.20122 39.4682 2.79529 39.22 2.4347C38.9719 2.07412 38.6551 1.76595 38.2879 1.52781V1.52781Z" fill="#CC9933"/>
</svg>
