<svg width="40" height="40" viewBox="0 0 40 40" fill="none" xmlns="http://www.w3.org/2000/svg">
<path d="M38.695 20.9904C39.535 19.9162 40 18.6 40 17.2307C40 15.0581 38.745 13.0016 36.725 11.8549C36.205 11.5597 35.6129 11.4043 35.01 11.4049H23.02L23.32 5.4581C23.39 4.021 22.865 2.65649 21.845 1.61616C21.3444 1.1034 20.7405 0.695421 20.0706 0.417448C19.4006 0.139475 18.6789 -0.00258877 17.95 3.57105e-05C15.35 3.57105e-05 13.05 1.69358 12.36 4.11778L8.065 19.1662H1.6C0.715 19.1662 0 19.8581 0 20.7146V38.3275C0 39.1839 0.715 39.8758 1.6 39.8758H31.665C32.125 39.8758 32.575 39.7887 32.99 39.6145C35.37 38.6323 36.905 36.3823 36.905 33.8855C36.905 33.2758 36.815 32.6758 36.635 32.0952C37.475 31.021 37.94 29.7049 37.94 28.3355C37.94 27.7258 37.85 27.1258 37.67 26.5452C38.51 25.471 38.975 24.1549 38.975 22.7855C38.965 22.1758 38.875 21.571 38.695 20.9904ZM3.6 36.392V22.65H7.65V36.392H3.6ZM35.42 19.3113L34.325 20.2307L35.02 21.4597C35.249 21.8646 35.3677 22.3192 35.365 22.7807C35.365 23.5791 35.005 24.3387 34.385 24.8613L33.29 25.7807L33.985 27.0097C34.214 27.4146 34.3327 27.8692 34.33 28.3307C34.33 29.1291 33.97 29.8887 33.35 30.4113L32.255 31.3307L32.95 32.5597C33.179 32.9646 33.2977 33.4192 33.295 33.8807C33.295 34.9646 32.635 35.942 31.615 36.3871H10.85V22.4952L15.825 5.05165C15.9533 4.60455 16.2287 4.21011 16.6094 3.92808C16.9902 3.64606 17.4555 3.49182 17.935 3.48875C18.315 3.48875 18.69 3.5952 18.99 3.81294C19.485 4.171 19.75 4.71294 19.72 5.28874L19.24 14.8887H34.96C35.85 15.4162 36.4 16.3065 36.4 17.2307C36.4 18.0291 36.04 18.7839 35.42 19.3113Z" fill="#CC9933"/>
</svg>
