<svg width="40" height="41" viewBox="0 0 40 41" fill="none" xmlns="http://www.w3.org/2000/svg">
<path d="M22.0541 0V4.02815C30.8959 5.11575 37.1597 13.1519 36.0721 21.9937C35.6275 25.5566 34.0076 28.8695 31.4688 31.4083C28.9299 33.9472 25.617 35.5671 22.0541 36.0117V40.0398C33.1315 38.8314 41.0871 28.8818 39.8787 17.8246C38.8314 8.43898 31.4397 1.00704 22.0541 0ZM18.026 0C14.0784 0.362534 10.3523 1.91337 7.29095 4.43097L10.1711 7.53264C12.4268 5.71997 15.1458 4.55181 18.026 4.14899V0.120844M4.45111 7.39166C1.92481 10.4429 0.374013 14.183 0 18.1267H4.02815C4.41083 15.2667 5.53871 12.5477 7.33123 10.2718L4.45111 7.39166ZM0.0201407 22.1548C0.422956 26.1024 1.97379 29.8285 4.47125 32.8899L7.33123 30.0097C5.55266 27.733 4.41879 25.0201 4.04829 22.1548H0.0201407ZM10.0905 32.9704L7.29095 35.7297C10.3418 38.2729 14.0769 39.8566 18.026 40.2815V36.2534C15.1608 35.8829 12.4478 34.749 10.1711 32.9704H10.0905ZM13.1519 29.8083L15.0049 21.9736L8.96264 16.7772L16.9182 16.032L20.0401 8.76123L23.1619 16.1126L31.1175 16.7772L25.0752 21.9736L26.9282 29.8083L20.0401 25.6593L13.1519 29.8083Z" fill="#CC9933"/>
</svg>
