<svg width="24" height="25" viewBox="0 0 24 25" fill="none" xmlns="http://www.w3.org/2000/svg">
<path d="M6.0127 14.1193H6.98598V18.9324H7.91926V14.1193H8.89254V13.3061H6.0127V14.1193ZM10.9324 17.9325C10.7724 18.1191 10.2258 18.4924 10.2258 17.9591V14.7726H9.39918V18.2524C9.39918 19.3057 10.4524 19.0257 10.9458 18.4791V18.9324H11.7724V14.7726H10.9458V17.9325H10.9324ZM14.0123 14.746C13.5323 14.746 13.2256 15.106 13.2256 15.106V13.2927H12.3857V18.9324H13.2256V18.6124C13.2256 18.6124 13.5056 18.9857 14.0123 18.9857C14.4522 18.9857 14.7855 18.5991 14.7855 18.0658V15.7593C14.7855 15.1326 14.4922 14.746 14.0123 14.746ZM13.9189 17.9591C13.9189 18.2658 13.7056 18.4124 13.4256 18.2924C13.35 18.2571 13.2821 18.2073 13.2256 18.1458V15.5593C13.279 15.5059 13.3456 15.4659 13.399 15.4259C13.6923 15.2793 13.9189 15.5059 13.9189 15.8126V17.9591ZM16.9988 17.7458C16.9988 18.0658 16.8254 18.2791 16.6254 18.2924C16.4121 18.3058 16.1988 18.1325 16.1988 17.7458V16.9592H17.7854V15.8926C17.7895 15.7302 17.7609 15.5686 17.7013 15.4174C17.6418 15.2663 17.5525 15.1286 17.4387 15.0126C17.2094 14.8034 16.9092 14.6891 16.5988 14.6926C16.3055 14.6926 15.9988 14.786 15.7588 14.9726C15.5055 15.1726 15.3455 15.4793 15.3455 15.8926V17.7591C15.3455 18.1325 15.4655 18.4258 15.6522 18.6391C15.8788 18.8791 16.1855 19.0124 16.5054 19.0257C16.8921 19.0391 17.3054 18.8791 17.5454 18.5458C17.692 18.3458 17.7854 18.0791 17.7854 17.7591V17.5458H16.9988V17.7458ZM16.1988 15.8926C16.1988 15.6659 16.3321 15.3993 16.5854 15.3993C16.8388 15.3993 16.9988 15.6393 16.9988 15.8926V16.3192H16.1988V15.8926Z" fill="black"/>
<path d="M11.9993 0.599976C10.4235 0.600063 8.86306 0.910539 7.40718 1.51368C5.95131 2.11681 4.62849 3.0008 3.51425 4.11517C2.40001 5.22953 1.51617 6.55245 0.91319 8.00839C0.310215 9.46433 -8.75245e-05 11.0248 1.85182e-08 12.6006C8.75616e-05 14.1765 0.310564 15.7369 0.913701 17.1928C1.51684 18.6487 2.40083 19.9715 3.51519 21.0857C4.62955 22.2 5.95247 23.0838 7.40842 23.6868C8.86436 24.2898 10.4248 24.6001 12.0007 24.6C15.1833 24.5998 18.2354 23.3353 20.4858 21.0848C22.7361 18.8342 24.0002 15.7819 24 12.5993C23.9998 9.41671 22.7354 6.36453 20.4848 4.11422C18.2342 1.86391 15.1819 0.599799 11.9993 0.599976ZM14.1059 5.09306H15.1725V8.66619C15.1725 8.89285 15.2792 8.89285 15.3191 8.89285C15.4791 8.89285 15.7191 8.71952 15.8391 8.59953V5.07973H16.9057V9.79946H15.8391V9.38615C15.6925 9.51948 15.5458 9.62614 15.3991 9.70614C15.1992 9.8128 15.0125 9.85279 14.8258 9.85279C14.7236 9.85769 14.6216 9.83991 14.5271 9.80072C14.4326 9.76153 14.348 9.70192 14.2792 9.62614C14.1592 9.47948 14.1059 9.25283 14.1059 8.97284V5.09306ZM10.7061 6.33299C10.7061 5.5997 11.306 4.99973 12.0393 4.99973C12.7726 4.99973 13.3726 5.5997 13.3726 6.33299V8.59953C13.3726 9.33282 12.7726 9.93279 12.0393 9.93279C11.306 9.93279 10.7061 9.33282 10.7061 8.59953V6.33299ZM7.93289 3.46648L8.57286 5.81302L9.22615 3.46648H10.4394L9.18616 7.17294V9.79946H7.99956V7.17294L6.71963 3.46648H7.93289ZM18.4656 20.1856C17.7857 20.8522 12.026 20.8655 12.026 20.8655C12.026 20.8655 6.27965 20.8522 5.58636 20.1856C4.90639 19.5189 4.90639 16.1991 4.90639 16.1724C4.90639 16.1591 4.90639 12.8393 5.58636 12.1593C6.26632 11.4927 12.026 11.4794 12.026 11.4794C12.026 11.4794 17.7723 11.4927 18.4656 12.1593C19.1456 12.826 19.1589 16.1458 19.1589 16.1724C19.1589 16.1724 19.1589 19.5056 18.4656 20.1856Z" fill="black"/>
<path d="M12.0129 9.06603C12.2395 9.06603 12.3462 8.93271 12.3595 8.71939V6.18619C12.3595 6.01287 12.1862 5.86621 12.0262 5.86621C11.8662 5.86621 11.6929 5.99954 11.6929 6.18619V8.71939C11.6929 8.91938 11.7862 9.0527 12.0129 9.06603Z" fill="black"/>
</svg>
