<svg width="69" height="57" viewBox="0 0 69 57" fill="none" xmlns="http://www.w3.org/2000/svg">
<path d="M34.9828 3.65654L40.9916 22.15L41.2161 22.8409H41.9427H61.3878L45.6564 34.2705L45.0686 34.6976L45.2931 35.3885L51.302 53.882L35.5705 42.4524L34.9828 42.0253L34.395 42.4524L18.6635 53.882L24.6724 35.3885L24.8969 34.6976L24.3091 34.2705L8.57768 22.8409H28.0228H28.7494L28.9739 22.15L34.9828 3.65654Z" stroke="black" stroke-width="2"/>
<rect x="1" y="29" width="68" height="10" fill="white"/>
<path d="M2.41992 31.4644L0.772461 36H0.0991211L1.99609 31.0234H2.43018L2.41992 31.4644ZM3.80078 36L2.1499 31.4644L2.13965 31.0234H2.57373L4.47754 36H3.80078ZM3.71533 34.1577V34.6978H0.919434V34.1577H3.71533ZM8.26211 35.4634V36H5.77383V35.4634H8.26211ZM5.90371 31.0234V36H5.24404V31.0234H5.90371ZM12.1355 35.4634V36H9.64727V35.4634H12.1355ZM9.77715 31.0234V36H9.11748V31.0234H9.77715ZM17.4796 34.7422C17.4796 34.626 17.4614 34.5234 17.4249 34.4346C17.3907 34.3434 17.3292 34.2614 17.2403 34.1885C17.1537 34.1156 17.033 34.0461 16.878 33.98C16.7254 33.9139 16.5317 33.8467 16.297 33.7783C16.0509 33.7054 15.8287 33.6245 15.6305 33.5356C15.4322 33.4445 15.2625 33.3408 15.1212 33.2246C14.9799 33.1084 14.8717 32.9751 14.7965 32.8247C14.7213 32.6743 14.6837 32.5023 14.6837 32.3086C14.6837 32.1149 14.7236 31.936 14.8033 31.772C14.8831 31.6079 14.997 31.4655 15.1451 31.3447C15.2955 31.2217 15.4744 31.126 15.6817 31.0576C15.8891 30.9893 16.1204 30.9551 16.3756 30.9551C16.7493 30.9551 17.066 31.0269 17.3258 31.1704C17.5878 31.3117 17.7872 31.4974 17.9239 31.7275C18.0606 31.9554 18.129 32.1992 18.129 32.459H17.4728C17.4728 32.2721 17.4329 32.1069 17.3531 31.9634C17.2734 31.8175 17.1526 31.7036 16.9908 31.6216C16.829 31.5373 16.624 31.4951 16.3756 31.4951C16.1409 31.4951 15.9472 31.5304 15.7945 31.6011C15.6419 31.6717 15.5279 31.7674 15.4527 31.8882C15.3798 32.009 15.3434 32.1468 15.3434 32.3018C15.3434 32.4066 15.365 32.5023 15.4083 32.5889C15.4539 32.6732 15.5234 32.7518 15.6168 32.8247C15.7125 32.8976 15.8333 32.9648 15.9791 33.0264C16.1272 33.0879 16.3038 33.1471 16.5089 33.2041C16.7914 33.2839 17.0353 33.3727 17.2403 33.4707C17.4454 33.5687 17.614 33.6792 17.7462 33.8022C17.8806 33.923 17.9798 34.0609 18.0436 34.2158C18.1096 34.3685 18.1427 34.5417 18.1427 34.7354C18.1427 34.9382 18.1017 35.1216 18.0196 35.2856C17.9376 35.4497 17.8202 35.5898 17.6676 35.7061C17.5149 35.8223 17.3315 35.9123 17.1173 35.9761C16.9054 36.0376 16.6684 36.0684 16.4063 36.0684C16.1762 36.0684 15.9495 36.0365 15.7262 35.9727C15.5051 35.9089 15.3035 35.8132 15.1212 35.6855C14.9412 35.5579 14.7965 35.4007 14.6871 35.2139C14.58 35.0247 14.5265 34.806 14.5265 34.5576H15.1827C15.1827 34.7285 15.2158 34.8755 15.2818 34.9985C15.3479 35.1193 15.4379 35.2196 15.5519 35.2993C15.6681 35.3791 15.7991 35.4383 15.9449 35.4771C16.093 35.5135 16.2468 35.5317 16.4063 35.5317C16.6365 35.5317 16.8313 35.4998 16.9908 35.436C17.1503 35.3722 17.2711 35.2811 17.3531 35.1626C17.4374 35.0441 17.4796 34.904 17.4796 34.7422ZM20.9224 31.0234V36H20.2729V31.0234H20.9224ZM22.522 31.0234V31.5635H18.6768V31.0234H22.522ZM24.9291 31.4644L23.2816 36H22.6083L24.5053 31.0234H24.9394L24.9291 31.4644ZM26.31 36L24.6591 31.4644L24.6488 31.0234H25.0829L26.9867 36H26.31ZM26.2245 34.1577V34.6978H23.4286V34.1577H26.2245ZM27.7532 31.0234H29.4007C29.7744 31.0234 30.09 31.0804 30.3475 31.1943C30.6072 31.3083 30.8043 31.4769 30.9388 31.7002C31.0755 31.9212 31.1438 32.1935 31.1438 32.5171C31.1438 32.745 31.0971 32.9535 31.0037 33.1426C30.9126 33.3294 30.7804 33.4889 30.6072 33.6211C30.4363 33.751 30.2313 33.8478 29.992 33.9116L29.8074 33.9834H28.2591L28.2522 33.4468H29.4212C29.6582 33.4468 29.8553 33.4058 30.0125 33.3237C30.1697 33.2394 30.2882 33.1266 30.368 32.9854C30.4477 32.8441 30.4876 32.688 30.4876 32.5171C30.4876 32.3257 30.45 32.1582 30.3748 32.0146C30.2996 31.8711 30.1811 31.7606 30.0193 31.6831C29.8598 31.6034 29.6536 31.5635 29.4007 31.5635H28.4129V36H27.7532V31.0234ZM30.6619 36L29.452 33.7441L30.139 33.7407L31.366 35.959V36H30.6619ZM35.3497 36H34.3106L34.3175 35.4634H35.3497C35.7052 35.4634 36.0014 35.3893 36.2384 35.2412C36.4754 35.0908 36.6531 34.8812 36.7716 34.6123C36.8924 34.3411 36.9527 34.0244 36.9527 33.6621V33.3579C36.9527 33.0731 36.9186 32.8201 36.8502 32.5991C36.7818 32.3758 36.6816 32.1878 36.5494 32.0352C36.4173 31.8802 36.2555 31.7629 36.0641 31.6831C35.8749 31.6034 35.6573 31.5635 35.4112 31.5635H34.2901V31.0234H35.4112C35.7371 31.0234 36.0344 31.0781 36.3033 31.1875C36.5722 31.2946 36.8035 31.4507 36.9972 31.6558C37.1931 31.8586 37.3435 32.1047 37.4483 32.394C37.5532 32.6812 37.6056 33.0047 37.6056 33.3647V33.6621C37.6056 34.0221 37.5532 34.3468 37.4483 34.6362C37.3435 34.9233 37.192 35.1683 36.9938 35.3711C36.7978 35.5739 36.5608 35.73 36.2828 35.8394C36.0071 35.9465 35.6961 36 35.3497 36ZM34.6627 31.0234V36H34.003V31.0234H34.6627ZM41.8584 35.4634V36H39.2231V35.4634H41.8584ZM39.3564 31.0234V36H38.6968V31.0234H39.3564ZM41.5098 33.1631V33.6997H39.2231V33.1631H41.5098ZM41.8242 31.0234V31.5635H39.2231V31.0234H41.8242ZM44.6825 31.0234V36H44.0331V31.0234H44.6825ZM46.2821 31.0234V31.5635H42.4369V31.0234H46.2821ZM48.6893 31.4644L47.0418 36H46.3685L48.2654 31.0234H48.6995L48.6893 31.4644ZM50.0701 36L48.4192 31.4644L48.409 31.0234H48.8431L50.7469 36H50.0701ZM49.9847 34.1577V34.6978H47.1888V34.1577H49.9847ZM52.2209 31.0234V36H51.5612V31.0234H52.2209ZM56.5387 35.4634V36H54.0504V35.4634H56.5387ZM54.1803 31.0234V36H53.5206V31.0234H54.1803ZM58.1016 31.0234V36H57.4419V31.0234H58.1016ZM63.2294 31.0234V36H62.5663L60.0609 32.1616V36H59.4013V31.0234H60.0609L62.5766 34.8721V31.0234H63.2294ZM68.1761 33.522V35.3438C68.1146 35.4349 68.0166 35.5374 67.8821 35.6514C67.7477 35.763 67.562 35.861 67.325 35.9453C67.0903 36.0273 66.7872 36.0684 66.4158 36.0684C66.1128 36.0684 65.8336 36.016 65.5784 35.9111C65.3255 35.804 65.1056 35.6491 64.9188 35.4463C64.7342 35.2412 64.5906 34.9928 64.4881 34.7012C64.3878 34.4072 64.3377 34.0745 64.3377 33.7031V33.3169C64.3377 32.9455 64.381 32.6139 64.4676 32.3223C64.5564 32.0306 64.6863 31.7834 64.8572 31.5806C65.0281 31.3755 65.2378 31.2205 65.4861 31.1157C65.7345 31.0086 66.0193 30.9551 66.3406 30.9551C66.7212 30.9551 67.039 31.0212 67.2942 31.1533C67.5517 31.2832 67.7522 31.4632 67.8958 31.6934C68.0416 31.9235 68.1351 32.1855 68.1761 32.4795H67.5164C67.4868 32.2995 67.4275 32.1354 67.3387 31.9873C67.2521 31.8392 67.1279 31.7207 66.9661 31.6318C66.8043 31.5407 66.5958 31.4951 66.3406 31.4951C66.1105 31.4951 65.9111 31.5373 65.7425 31.6216C65.5739 31.7059 65.4349 31.8267 65.3255 31.9839C65.2161 32.1411 65.1341 32.3314 65.0794 32.5547C65.027 32.778 65.0008 33.0298 65.0008 33.3101V33.7031C65.0008 33.9902 65.0338 34.2466 65.0999 34.4722C65.1683 34.6978 65.2651 34.8903 65.3904 35.0498C65.5158 35.207 65.665 35.3267 65.8382 35.4087C66.0136 35.4907 66.2073 35.5317 66.4192 35.5317C66.6539 35.5317 66.8442 35.5124 66.99 35.4736C67.1359 35.4326 67.2498 35.3848 67.3318 35.3301C67.4139 35.2731 67.4765 35.2196 67.5198 35.1694V34.0552H66.368V33.522H68.1761Z" fill="black"/>
</svg>
